%TF.GenerationSoftware,KiCad,Pcbnew,7.0.9*%
%TF.CreationDate,2024-03-22T11:46:37+01:00*%
%TF.ProjectId,Nucleo_USB_shield,4e75636c-656f-45f5-9553-425f73686965,rev?*%
%TF.SameCoordinates,Original*%
%TF.FileFunction,Soldermask,Top*%
%TF.FilePolarity,Negative*%
%FSLAX46Y46*%
G04 Gerber Fmt 4.6, Leading zero omitted, Abs format (unit mm)*
G04 Created by KiCad (PCBNEW 7.0.9) date 2024-03-22 11:46:37*
%MOMM*%
%LPD*%
G01*
G04 APERTURE LIST*
G04 Aperture macros list*
%AMFreePoly0*
4,1,19,0.500000,-0.750000,0.000000,-0.750000,0.000000,-0.744911,-0.071157,-0.744911,-0.207708,-0.704816,-0.327430,-0.627875,-0.420627,-0.520320,-0.479746,-0.390866,-0.500000,-0.250000,-0.500000,0.250000,-0.479746,0.390866,-0.420627,0.520320,-0.327430,0.627875,-0.207708,0.704816,-0.071157,0.744911,0.000000,0.744911,0.000000,0.750000,0.500000,0.750000,0.500000,-0.750000,0.500000,-0.750000,
$1*%
%AMFreePoly1*
4,1,19,0.000000,0.744911,0.071157,0.744911,0.207708,0.704816,0.327430,0.627875,0.420627,0.520320,0.479746,0.390866,0.500000,0.250000,0.500000,-0.250000,0.479746,-0.390866,0.420627,-0.520320,0.327430,-0.627875,0.207708,-0.704816,0.071157,-0.744911,0.000000,-0.744911,0.000000,-0.750000,-0.500000,-0.750000,-0.500000,0.750000,0.000000,0.750000,0.000000,0.744911,0.000000,0.744911,
$1*%
G04 Aperture macros list end*
%ADD10O,1.700000X1.700000*%
%ADD11C,1.700000*%
%ADD12C,1.600000*%
%ADD13O,1.600000X1.600000*%
%ADD14FreePoly0,90.000000*%
%ADD15FreePoly1,90.000000*%
%ADD16FreePoly0,270.000000*%
%ADD17FreePoly1,270.000000*%
%ADD18R,1.600000X1.600000*%
%ADD19C,4.000000*%
%ADD20C,3.200000*%
G04 APERTURE END LIST*
D10*
%TO.C,J4*%
X153000000Y-56780000D03*
X155540000Y-56780000D03*
X153000000Y-59320000D03*
X155540000Y-59320000D03*
X153000000Y-61860000D03*
X155540000Y-61860000D03*
X153000000Y-64400000D03*
X155540000Y-64400000D03*
X153000000Y-66940000D03*
X155540000Y-66940000D03*
X153000000Y-69480000D03*
X155540000Y-69480000D03*
X153000000Y-72020000D03*
X155540000Y-72020000D03*
X153000000Y-74560000D03*
X155540000Y-74560000D03*
X153000000Y-77100000D03*
X155540000Y-77100000D03*
X153000000Y-79640000D03*
X155540000Y-79640000D03*
X153000000Y-82180000D03*
X155540000Y-82180000D03*
X153000000Y-84720000D03*
X155540000Y-84720000D03*
X153000000Y-87260000D03*
X155540000Y-87260000D03*
X153000000Y-89800000D03*
X155540000Y-89800000D03*
X153000000Y-92340000D03*
X155540000Y-92340000D03*
X153000000Y-94880000D03*
X155540000Y-94880000D03*
X153000000Y-97420000D03*
X155540000Y-97420000D03*
X153000000Y-99960000D03*
X155540000Y-99960000D03*
X153000000Y-102500000D03*
X155540000Y-102500000D03*
%TD*%
%TO.C,J2*%
X117000000Y-102560000D03*
X114460000Y-102560000D03*
X117000000Y-100020000D03*
X114460000Y-100020000D03*
X117000000Y-97480000D03*
X114460000Y-97480000D03*
X117000000Y-94940000D03*
X114460000Y-94940000D03*
X117000000Y-92400000D03*
X114460000Y-92400000D03*
X117000000Y-89860000D03*
X114460000Y-89860000D03*
X117000000Y-87320000D03*
X114460000Y-87320000D03*
X117000000Y-84780000D03*
X114460000Y-84780000D03*
X117000000Y-82240000D03*
X114460000Y-82240000D03*
X117000000Y-79700000D03*
X114460000Y-79700000D03*
X117000000Y-77160000D03*
X114460000Y-77160000D03*
X117000000Y-74620000D03*
X114460000Y-74620000D03*
X117000000Y-72080000D03*
X114460000Y-72080000D03*
X117000000Y-69540000D03*
X114460000Y-69540000D03*
X117000000Y-67000000D03*
X114460000Y-67000000D03*
X117000000Y-64460000D03*
X114460000Y-64460000D03*
X117000000Y-61920000D03*
X114460000Y-61920000D03*
X117000000Y-59380000D03*
X114460000Y-59380000D03*
X117000000Y-56840000D03*
D11*
X114460000Y-56840000D03*
%TD*%
D12*
%TO.C,R2*%
X128800000Y-83410000D03*
D13*
X128800000Y-75790000D03*
%TD*%
D12*
%TO.C,R1*%
X135000000Y-75780000D03*
D13*
X135000000Y-83400000D03*
%TD*%
D14*
%TO.C,JP1*%
X135000000Y-80400000D03*
D15*
X135000000Y-79100000D03*
%TD*%
D16*
%TO.C,JP2*%
X128800000Y-79100000D03*
D17*
X128800000Y-80400000D03*
%TD*%
D18*
%TO.C,J5*%
X133250000Y-91140000D03*
D12*
X130750000Y-91140000D03*
X130750000Y-93140000D03*
X133250000Y-93140000D03*
D19*
X138000000Y-96000000D03*
X126000000Y-96000000D03*
%TD*%
D20*
%TO.C,H2*%
X143890000Y-105040000D03*
%TD*%
%TO.C,H1*%
X110870000Y-52970000D03*
%TD*%
D10*
%TO.C,J1*%
X103250000Y-56780000D03*
X105790000Y-56780000D03*
X103250000Y-59320000D03*
X105790000Y-59320000D03*
X103250000Y-61860000D03*
X105790000Y-61860000D03*
X103250000Y-64400000D03*
X105790000Y-64400000D03*
X103250000Y-66940000D03*
X105790000Y-66940000D03*
X103250000Y-69480000D03*
X105790000Y-69480000D03*
X103250000Y-72020000D03*
X105790000Y-72020000D03*
X103250000Y-74560000D03*
X105790000Y-74560000D03*
X103250000Y-77100000D03*
X105790000Y-77100000D03*
X103250000Y-79640000D03*
X105790000Y-79640000D03*
X103250000Y-82180000D03*
X105790000Y-82180000D03*
X103250000Y-84720000D03*
X105790000Y-84720000D03*
X103250000Y-87260000D03*
X105790000Y-87260000D03*
X103250000Y-89800000D03*
X105790000Y-89800000D03*
X103250000Y-92340000D03*
X105790000Y-92340000D03*
X103250000Y-94880000D03*
X105790000Y-94880000D03*
X103250000Y-97420000D03*
X105790000Y-97420000D03*
X103250000Y-99960000D03*
X105790000Y-99960000D03*
X103250000Y-102500000D03*
X105790000Y-102500000D03*
%TD*%
%TO.C,J3*%
X164210000Y-56780000D03*
X166750000Y-56780000D03*
X164210000Y-59320000D03*
X166750000Y-59320000D03*
X164210000Y-61860000D03*
X166750000Y-61860000D03*
X164210000Y-64400000D03*
X166750000Y-64400000D03*
X164210000Y-66940000D03*
X166750000Y-66940000D03*
X164210000Y-69480000D03*
X166750000Y-69480000D03*
X164210000Y-72020000D03*
X166750000Y-72020000D03*
X164210000Y-74560000D03*
X166750000Y-74560000D03*
X164210000Y-77100000D03*
X166750000Y-77100000D03*
X164210000Y-79640000D03*
X166750000Y-79640000D03*
X164210000Y-82180000D03*
X166750000Y-82180000D03*
X164210000Y-84720000D03*
X166750000Y-84720000D03*
X164210000Y-87260000D03*
X166750000Y-87260000D03*
X164210000Y-89800000D03*
X166750000Y-89800000D03*
X164210000Y-92340000D03*
X166750000Y-92340000D03*
X164210000Y-94880000D03*
X166750000Y-94880000D03*
X164210000Y-97420000D03*
X166750000Y-97420000D03*
X164210000Y-99960000D03*
X166750000Y-99960000D03*
X164210000Y-102500000D03*
X166750000Y-102500000D03*
%TD*%
M02*
