M48
; DRILL file {KiCad 7.0.9} date Fri Mar 22 11:46:33 2024
; FORMAT={-:-/ absolute / metric / decimal}
; #@! TF.CreationDate,2024-03-22T11:46:33+01:00
; #@! TF.GenerationSoftware,Kicad,Pcbnew,7.0.9
; #@! TF.FileFunction,MixedPlating,1,2
FMAT,2
METRIC
; #@! TA.AperFunction,Plated,PTH,ViaDrill
T1C0.400
; #@! TA.AperFunction,Plated,PTH,ComponentDrill
T2C0.800
; #@! TA.AperFunction,Plated,PTH,ComponentDrill
T3C0.950
; #@! TA.AperFunction,Plated,PTH,ComponentDrill
T4C1.000
; #@! TA.AperFunction,Plated,PTH,ComponentDrill
T5C2.300
; #@! TA.AperFunction,NonPlated,NPTH,ComponentDrill
T6C3.200
%
G90
G05
T1
X125.1Y-79.7
X131.35Y-79.7
T2
X128.8Y-75.79
X128.8Y-83.41
X135.0Y-75.78
X135.0Y-83.4
T3
X130.75Y-91.14
X130.75Y-93.14
X133.25Y-91.14
X133.25Y-93.14
T4
X103.25Y-56.78
X103.25Y-59.32
X103.25Y-61.86
X103.25Y-64.4
X103.25Y-66.94
X103.25Y-69.48
X103.25Y-72.02
X103.25Y-74.56
X103.25Y-77.1
X103.25Y-79.64
X103.25Y-82.18
X103.25Y-84.72
X103.25Y-87.26
X103.25Y-89.8
X103.25Y-92.34
X103.25Y-94.88
X103.25Y-97.42
X103.25Y-99.96
X103.25Y-102.5
X105.79Y-56.78
X105.79Y-59.32
X105.79Y-61.86
X105.79Y-64.4
X105.79Y-66.94
X105.79Y-69.48
X105.79Y-72.02
X105.79Y-74.56
X105.79Y-77.1
X105.79Y-79.64
X105.79Y-82.18
X105.79Y-84.72
X105.79Y-87.26
X105.79Y-89.8
X105.79Y-92.34
X105.79Y-94.88
X105.79Y-97.42
X105.79Y-99.96
X105.79Y-102.5
X114.46Y-59.38
X114.46Y-61.92
X114.46Y-64.46
X114.46Y-67.0
X114.46Y-69.54
X114.46Y-72.08
X114.46Y-74.62
X114.46Y-77.16
X114.46Y-79.7
X114.46Y-82.24
X114.46Y-84.78
X114.46Y-87.32
X114.46Y-89.86
X114.46Y-92.4
X114.46Y-94.94
X114.46Y-97.48
X114.46Y-100.02
X114.46Y-102.56
X117.0Y-56.84
X117.0Y-59.38
X117.0Y-61.92
X117.0Y-64.46
X117.0Y-67.0
X117.0Y-69.54
X117.0Y-72.08
X117.0Y-74.62
X117.0Y-77.16
X117.0Y-79.7
X117.0Y-82.24
X117.0Y-84.78
X117.0Y-87.32
X117.0Y-89.86
X117.0Y-92.4
X117.0Y-94.94
X117.0Y-97.48
X117.0Y-100.02
X117.0Y-102.56
X153.0Y-56.78
X153.0Y-59.32
X153.0Y-61.86
X153.0Y-64.4
X153.0Y-66.94
X153.0Y-69.48
X153.0Y-72.02
X153.0Y-74.56
X153.0Y-77.1
X153.0Y-79.64
X153.0Y-82.18
X153.0Y-84.72
X153.0Y-87.26
X153.0Y-89.8
X153.0Y-92.34
X153.0Y-94.88
X153.0Y-97.42
X153.0Y-99.96
X153.0Y-102.5
X155.54Y-56.78
X155.54Y-59.32
X155.54Y-61.86
X155.54Y-64.4
X155.54Y-66.94
X155.54Y-69.48
X155.54Y-72.02
X155.54Y-74.56
X155.54Y-77.1
X155.54Y-79.64
X155.54Y-82.18
X155.54Y-84.72
X155.54Y-87.26
X155.54Y-89.8
X155.54Y-92.34
X155.54Y-94.88
X155.54Y-97.42
X155.54Y-99.96
X155.54Y-102.5
X164.21Y-56.78
X164.21Y-59.32
X164.21Y-61.86
X164.21Y-64.4
X164.21Y-66.94
X164.21Y-69.48
X164.21Y-72.02
X164.21Y-74.56
X164.21Y-77.1
X164.21Y-79.64
X164.21Y-82.18
X164.21Y-84.72
X164.21Y-87.26
X164.21Y-89.8
X164.21Y-92.34
X164.21Y-94.88
X164.21Y-97.42
X164.21Y-99.96
X164.21Y-102.5
X166.75Y-56.78
X166.75Y-59.32
X166.75Y-61.86
X166.75Y-64.4
X166.75Y-66.94
X166.75Y-69.48
X166.75Y-72.02
X166.75Y-74.56
X166.75Y-77.1
X166.75Y-79.64
X166.75Y-82.18
X166.75Y-84.72
X166.75Y-87.26
X166.75Y-89.8
X166.75Y-92.34
X166.75Y-94.88
X166.75Y-97.42
X166.75Y-99.96
X166.75Y-102.5
T5
X126.0Y-96.0
X138.0Y-96.0
T6
X110.87Y-52.97
X143.89Y-105.04
T4
G00X114.46Y-56.84
M15
G01X114.46Y-56.84
M16
G05
T0
M30
